<?xml version="1.0" encoding="utf-8"?>
<!-- Generator: Adobe Illustrator 21.1.0, SVG Export Plug-In . SVG Version: 6.00 Build 0)  -->
<svg version="1.1" id="Layer_1" xmlns="http://www.w3.org/2000/svg" xmlns:xlink="http://www.w3.org/1999/xlink" x="0px" y="0px"
   viewBox="0 0 365 365" style="enable-background:new 0 0 365 365;" xml:space="preserve">
<style type="text/css">
  .st0{fill:url(#SVGID_1_);}
</style>
<linearGradient id="SVGID_1_" gradientUnits="userSpaceOnUse" x1="2.4427" y1="181.9359" x2="361" y2="181.9359">
  <stop  offset="0" style="stop-color:#3AC6F4"/>
  <stop  offset="0.2756" style="stop-color:#51C3C6"/>
  <stop  offset="0.624" style="stop-color:#5EC093"/>
  <stop  offset="0.8729" style="stop-color:#64BE72"/>
  <stop  offset="0.9961" style="stop-color:#66BE64"/>
</linearGradient>
<path class="st0" d="M175.8,29.9l-1.2-1.4C164.9,17.4,151,11,136.3,11c-20,0-38.3,11.9-46.4,30C64.5,44,45,65.6,45,91.6
  c0,0.9,0,1.8,0.1,2.8c-19.2,7.5-32.3,26.5-32.3,47.4c0,12.8,4.8,25.1,13.4,34.4c-15,12.6-23.7,31.3-23.7,51
  c0,31.2,21.4,57.9,51.4,65c3.1,34.3,31.6,60.7,66.5,60.7c21.4,0,41.5-10.2,54-27.4c1.5-1.4,1.5-3.7,1.5-6.9L175.8,29.9z M64.4,283.4
  l7.7-26.9c0.1,0,0.1,0,0.2,0c2.4,0,4.7-0.7,6.7-1.8l35,36.1c-0.3,0.5-0.6,0.9-0.8,1.4L64.4,283.4z M40.8,175.4l26.4-47.8
  c0.6,0.1,1.2,0.2,1.8,0.2c3.2,0,6-1.5,7.8-3.9l24.4,11.4c-0.2,0.7-0.3,1.4-0.3,2.1c0,2.4,0.9,4.5,2.3,6.2l-23.8,30.8
  c-1-0.4-2.1-0.7-3.3-0.7c-3.5,0-6.5,2.2-7.7,5.2L40.8,175.4z M95.1,52.6l30,23.6c-0.3,1-0.6,2.1-0.6,3.3c0,3.5,1.7,6.5,4.2,8.5
  l-17.4,39.8c-0.3,0-0.6-0.1-0.9-0.1c-3.1,0-5.9,1.5-7.6,3.9l-24.4-11.4c0.2-0.7,0.3-1.4,0.3-2.2c0-3.2-1.5-5.9-3.9-7.7L95.1,52.6z
   M165.8,127.2l-18.2,33.3c-0.4-0.1-0.8-0.1-1.3-0.1c-1.3,0-2.5,0.4-3.6,1.1l-23.8-19.7c0.7-1.3,1.1-2.8,1.1-4.4
  c0-2.8-1.2-5.3-3.2-7.1l17.5-40.1c0.3,0,0.6,0.1,0.9,0.1c1.8,0,3.4-0.5,4.8-1.2l25.6,37.4C165.8,126.7,165.8,126.9,165.8,127.2z
   M165.8,207.4L139.5,224c-0.7-0.7-1.6-1.3-2.6-1.7l10-48.7c0.3,0,0.6-0.1,0.9-0.2l17.8,28.4C165.8,203.7,165.8,205.6,165.8,207.4z
   M123.1,285.8c-1.6,0-3.1,0.4-4.5,1.1l-35.3-36.4c1.3-2,2.1-4.4,2.1-7c0-0.2,0-0.5,0-0.7l40.1-8.6c0.9,2,2.6,3.6,4.6,4.4
  L123.1,285.8z M82.6,176.8l23.8-30.8c1.3,0.6,2.6,1,4.1,1c2.2,0,4.3-0.8,5.9-2.1l23.8,19.7c-0.3,0.8-0.5,1.6-0.5,2.5
  c0,2.5,1.4,4.6,3.4,5.7l-10,48.8c-1.9,0.1-3.6,0.7-5,1.8l-44.6-37.8c0.5-1.1,0.9-2.3,0.9-3.6C84.3,180,83.7,178.2,82.6,176.8z
   M77.6,190c1.2-0.2,2.3-0.7,3.3-1.4l44.6,37.8c-0.6,1.1-0.9,2.4-0.9,3.8l-40.1,8.6c-1.6-4-5.1-7.1-9.4-8.1L77.6,190z M127.1,286.4
  l7-47.3c1-0.1,2-0.3,2.9-0.7l28.8,36.8c0,0.6,0,1.3,0,1.9l-33.3,13.2C131.1,288.5,129.3,287.1,127.1,286.4z M140.2,235.9
  c1.3-1.5,2-3.5,2-5.6c0-1-0.2-2-0.5-2.9l24.1-15.2c0,20.4,0,39.8,0,56.4L140.2,235.9z M151.4,171.3c1-1.2,1.6-2.6,1.6-4.2
  c0-1.8-0.7-3.4-1.8-4.6l14.7-26.9c0,19,0,39,0,58.6L151.4,171.3z M165.8,112.2l-20.2-29.5c0.3-1,0.5-2,0.5-3.1
  c0-3.6-1.8-6.8-4.5-8.7l4.9-48.4c7.3,1.9,14,5.7,19.3,11.3C165.8,41.7,165.8,73,165.8,112.2z M136.3,21.1c0.7,0,1.4,0.1,2.2,0.1
  L133.6,69c-1.9,0.3-3.6,1.1-5.1,2.3L98.2,47.4C104.2,31.6,119.5,21.1,136.3,21.1z M51.9,102.6l4.1-1.2l-0.6-4.3
  c-0.3-1.9-0.4-3.8-0.4-5.6c0-20.2,14.7-37,34.1-40.2l-20,57c-0.1,0-0.1,0-0.2,0c-4.3,0-7.9,2.8-9.2,6.6l-24-3
  C40.4,107.7,45.8,104.5,51.9,102.6z M22.8,141.7c0-9.8,3.6-19,9.6-26.2l26.9,3.3c0.2,2.2,1.1,4.2,2.5,5.8l-25.9,47
  C27.6,163.9,22.8,153.1,22.8,141.7z M36.7,180.7l2.1-1.5l29.1,3.7c0.4,3.2,2.6,5.8,5.6,6.8l-2.5,40.7c-3.4,0.3-6.5,2-8.6,4.4
  l-47.3-24.7C18.8,198.4,26.4,187.9,36.7,180.7z M13.6,216.2l46.1,24c-0.3,1-0.4,2.1-0.4,3.2c0,1.1,0.2,2.3,0.4,3.3l-35.2,15.4
  c-7.6-9.7-12-21.8-12-35C12.5,223.4,12.9,219.8,13.6,216.2z M27.2,265.3l34.1-14.9c1.6,2.5,4,4.4,6.8,5.3l-7.9,27.4l-0.8-0.1
  C46.6,280.8,35.4,274.4,27.2,265.3z M63.7,289.4l48.2,8.7c0.3,4.6,3.3,8.4,7.4,9.9l-1.8,34.6C88.6,341.3,65.4,318.5,63.7,289.4z
   M123.6,342.7l1.7-34c5.5-0.9,9.6-5.6,9.6-11.3c0-0.5,0-1-0.1-1.5l30.9-12.2c0,18.7,0,32.1,0,36.5
  C155.8,333.4,140.3,341.7,123.6,342.7z M337.3,175.9c8.7-9.4,13.4-21.5,13.4-34.3c0-20.8-12.9-39.7-32.3-47.2
  c0.1-0.9,0.1-1.9,0.1-2.8c0-25.9-19.2-47.4-44.8-50.4c-8.2-18.2-26.3-30-46.3-30c-14.6,0-28.6,6.3-38.2,17.4L188,30l0,246.1
  c0,0,0,43,0,47.3c12.5,17.1,34.1,28.9,55.4,28.9c34.9,0,63.3-26,66.3-60.6c30.2-7.1,51.3-33.6,51.3-64.8
  C361,207.1,352.4,188.6,337.3,175.9z M304.1,282.7l-4,0.7l-0.1,4.1c-1,30.8-25.8,54.9-56.6,54.9c-17.8,0-34.8-8.5-45.4-22.7l0-31.9
  h11.7l27.6,27.6c-0.3,1-0.5,2-0.5,3.1c0,5.3,4.3,9.5,9.5,9.5s9.5-4.3,9.5-9.5s-4.3-9.5-9.5-9.5c-1,0-2.1,0.2-3,0.5l-30-30h-15.2
  l0-27.2h24.8l45.3,45.3c-0.3,0.9-0.4,1.8-0.4,2.7c0,5.3,4.3,9.5,9.5,9.5s9.5-4.3,9.5-9.5s-4.3-9.5-9.5-9.5c-1.2,0-2.3,0.2-3.4,0.6
  l-47.5-47.5h-28.3v-26.5h36.9l33.6,33.6l42.4-0.4c1.8,2.5,4.6,4,7.7,4c5.3,0,9.5-4.3,9.5-9.5s-4.3-9.5-9.5-9.5
  c-4.2,0-7.9,2.8-9.1,6.7l-37.6,0.4l-33.6-33.6h-40.4l0-22.9h97.8c1.7,2.9,4.8,4.7,8.2,4.7c5.3,0,9.5-4.3,9.5-9.5s-4.3-9.5-9.5-9.5
  c-3.9,0-7.4,2.3-8.8,5.9h-97.2v-24.1H260l24.1-24.1h20.3c1.6,3.1,4.9,5.1,8.5,5.1c5.3,0,9.5-4.3,9.5-9.5s-4.3-9.5-9.5-9.5
  c-3.7,0-7.1,2.2-8.6,5.5h-23.7l-24.1,24.1h-58.6l0-24.6h30l41.3-41.3c1.2,0.5,2.4,0.8,3.7,0.8c5.3,0,9.5-4.3,9.5-9.5
  s-4.3-9.5-9.5-9.5s-9.5,4.3-9.5,9.5c0,0.8,0.1,1.6,0.3,2.4L224.4,112h-26.5V84.5h16.8l27.1-27.1c0.9,0.3,1.8,0.4,2.7,0.4
  c5.3,0,9.5-4.3,9.5-9.5s-4.3-9.5-9.5-9.5s-9.5,4.3-9.5,9.5c0,1.2,0.2,2.3,0.6,3.4l-24.4,24.4h-13.4l0-42.4
  c7.7-8,18.4-12.7,29.5-12.7c16.9,0,32.3,10.6,38.2,26.5l1.1,3l3.3,0.2c21.6,1.2,38.6,19,38.6,40.7c0,1.8-0.1,3.7-0.4,5.6l-0.6,4.2
  l4.1,1.2c17.1,5.1,29.1,21.2,29.1,39.1c0,11.9-5.2,23.2-14.3,31l-4.9,4.2l5.3,3.7c15.2,10.6,24.2,28,24.2,46.5
  C351.1,254.5,331.3,278,304.1,282.7z"/>
</svg>
