<svg id="Layer_1" data-name="Layer 1" xmlns="http://www.w3.org/2000/svg" xmlns:xlink="http://www.w3.org/1999/xlink" viewBox="0 0 615 615"><defs><style>.cls-1{fill:url(#linear-gradient);}.cls-2,.cls-4{fill:none;stroke:#2cbcee;stroke-linecap:round;stroke-miterlimit:10;}.cls-2{stroke-width:4px;stroke-dasharray:0 10;}.cls-3{opacity:0.3;}.cls-5,.cls-7{fill:#2cbcee;}.cls-6{fill:#fff;}.cls-7{opacity:0.2;}.cls-8{fill:url(#linear-gradient-2);}</style><linearGradient id="linear-gradient" x1="33.85" y1="320.75" x2="591.56" y2="320.75" gradientUnits="userSpaceOnUse"><stop offset="0" stop-color="#37c6f4"/><stop offset="0.13" stop-color="#3ac6eb"/><stop offset="0.33" stop-color="#41c4d4"/><stop offset="0.59" stop-color="#4ec2ae"/><stop offset="0.88" stop-color="#5ebf7a"/><stop offset="1" stop-color="#66be62"/></linearGradient><linearGradient id="linear-gradient-2" x1="210.66" y1="299.62" x2="401.91" y2="299.62" gradientUnits="userSpaceOnUse"><stop offset="0" stop-color="#2cbcee"/><stop offset="0.17" stop-color="#2ebcea"/><stop offset="0.34" stop-color="#33bcde"/><stop offset="0.51" stop-color="#3bbdca"/><stop offset="0.68" stop-color="#47bdae"/><stop offset="0.85" stop-color="#56bd8a"/><stop offset="1" stop-color="#66be64"/></linearGradient></defs><title>icons-FINAL</title><path class="cls-1" d="M568.87,208l-101.93-.72a31.19,31.19,0,0,1,0-62.38H467A39.27,39.27,0,0,1,541.57,136h.85a31.25,31.25,0,0,1,30.92,27.13A22.69,22.69,0,0,1,568.87,208ZM467,149.91a26.19,26.19,0,1,0,0,52.38l101.93.72a17.69,17.69,0,0,0,1.89-35.27l-2.09-.22-.14-2.1A26.23,26.23,0,0,0,542.42,141c-.71,0-1.45,0-2.27.1l-1.87.16-.68-1.75a34.26,34.26,0,0,0-66,8.33l-.28,2.38L469,150C468.2,149.94,467.56,149.91,467,149.91ZM273.76,544.61a28.69,28.69,0,0,1-5.15-56.92,39.8,39.8,0,0,1,39.44-35.08c.52,0,1,0,1.59,0a50.2,50.2,0,0,1,95.62,11.59H406a39.72,39.72,0,0,1,0,79.44Zm34.29-87A34.77,34.77,0,0,0,273.42,490l-.14,2.1-2.09.22a23.69,23.69,0,0,0,2.55,47.24l132.2-.94a34.72,34.72,0,1,0,0-69.44c-.8,0-1.65,0-2.66.11l-2.39.18-.28-2.38a45.19,45.19,0,0,0-87-11l-.68,1.75-1.87-.16C310,457.66,309,457.61,308.06,457.61ZM85.8,275.18a14.51,14.51,0,1,0,14.51,14.51A14.51,14.51,0,0,0,85.8,275.18Zm444.72,11.39A14.51,14.51,0,1,0,545,301.08,14.51,14.51,0,0,0,530.52,286.57ZM330.87,121.24a14.51,14.51,0,1,0,14.51,14.51A14.51,14.51,0,0,0,330.87,121.24Zm51.83,378.4v-1a8.79,8.79,0,0,0-8.79-8.79h-44a8.79,8.79,0,0,0-8.79,8.79v1a8.79,8.79,0,0,0,8.79,8.79h44A8.79,8.79,0,0,0,382.7,499.64ZM537.38,167.4h0a7.17,7.17,0,0,0-7.17-7.17h-33.1a7.17,7.17,0,0,0-7.17,7.17h0a7.17,7.17,0,0,0,7.17,7.17h33.1A7.17,7.17,0,0,0,537.38,167.4ZM511.82,283.85l-31.42-6.22-18.3,14.65a12.42,12.42,0,0,0-22.56,4.95h-15.4V180.94H219.89c0-.33,0-.66,0-1a35.11,35.11,0,0,0-21.42-32.32A22.57,22.57,0,0,0,167,122.3a44.28,44.28,0,0,0-80.14,0,22.57,22.57,0,0,0-31.59,25.28A35.09,35.09,0,0,0,68.94,215H184.82a35.21,35.21,0,0,0,4.58-.31v74.92H175.17a12.4,12.4,0,0,0-21.61-6.16l-18.29-14.65-31.42,6.22a2,2,0,0,0,.78,3.92l29.59-5.86,17.21,13.78a12.4,12.4,0,0,0-.38,8.44L133.29,309l-29.62-5.86a2,2,0,0,0-.78,3.92l31.39,6.21L152.9,299a12.4,12.4,0,0,0,22.27-5.33H189.4v122H424.15V301.23h15.4a12.4,12.4,0,0,0,21.61,6.16L479.44,322l31.42-6.22a2,2,0,0,0-.78-3.92l-29.59,5.86L463.28,304a12.25,12.25,0,0,0,.52-7.92l17.65-14.13L511,287.77a2,2,0,0,0,.78-3.92Zm-348.9,16.24a8.43,8.43,0,1,1,8.43-8.43A8.44,8.44,0,0,1,162.92,300.08Zm21.91-90H68.94a30.09,30.09,0,0,1-9.84-58.53l2.33-.81-.78-2.34A17.57,17.57,0,0,1,86.73,128l2.56,1.63,1.11-2.82a39.27,39.27,0,0,1,73.06-.06l1.11,2.8,2.55-1.6a17.57,17.57,0,0,1,26,20.44l-.78,2.34,2.33.81A30.09,30.09,0,0,1,184.82,210ZM415.15,406.69H198.4V212.31a35.26,35.26,0,0,0,20.06-22.37H415.15Zm36.65-99a8.43,8.43,0,1,1,7.75-11.76h0a8.44,8.44,0,0,1-7.75,11.76Z"/><path class="cls-2" d="M223.39,514.79c-78-28.16-135.22-99.68-142.63-185.44"/><path class="cls-2" d="M510.71,350.79A217,217,0,0,1,443,471.51"/><path class="cls-2" d="M199.65,116.22a217.47,217.47,0,0,1,231.83,23.36"/><g class="cls-3"><path class="cls-4" d="M343.09,118s64.13-65.79,124-3.19"/><polygon class="cls-5" points="461.81 115.42 461.84 114.42 466.77 114.59 466.58 109.66 467.58 109.62 467.81 115.62 461.81 115.42"/></g><circle class="cls-6" cx="373.15" cy="499.13" r="7.47"/><rect class="cls-7" x="99.05" y="153.93" width="55.67" height="16.82" rx="8.41" ry="8.41"/><circle class="cls-6" cx="146.08" cy="162.34" r="6.76"/><circle class="cls-6" cx="530.02" cy="167.4" r="5.76"/><g class="cls-3"><path class="cls-4" d="M227.28,161.75s44.44,25.72,87.36-9.89"/><path class="cls-5" d="M312.31,159.86a.5.5,0,0,1-.31-.63l2.45-7.25-7.6.85a.5.5,0,0,1-.11-1l8.38-.93a.5.5,0,0,1,.53.66l-2.7,8a.5.5,0,0,1-.63.31Z"/></g><g class="cls-3"><path class="cls-4" d="M71.29,309.66s-34.94,112.41,74.79,125C220,443.21,241.65,478,245,484.31"/><polygon class="cls-5" points="239.74 483.45 240.05 482.5 244.74 484 245.9 479.2 246.87 479.44 245.46 485.28 239.74 483.45"/></g><g class="cls-3"><path class="cls-4" d="M532,276.84s-18.79-31.87-6.32-58.48"/><polygon class="cls-5" points="528.16 223.06 527.22 223.39 525.6 218.73 521.07 220.68 520.68 219.76 526.2 217.39 528.16 223.06"/></g><path class="cls-8" d="M318.4,375.36l-2.62-2.62v-51.1h2.88v49.91l1.77,1.77Zm-15.35,18.7-1.41-1.41v-28l7.18-7.18V321.65h-2.88v34.69l-7.18,7.18v30.33L301,396.1Zm-11-19.24V344.56l11.07-11.07V320.56h-2.88V332.3l-11.07,11.07v30.27L285.84,377l2,2Zm-10.71-36.38,12-12v-5.84H290.5v4.65l-12,12v21.82h2.88Zm56.33,26.36L326.88,354V320.56H324v34.64L334.79,366v13.67h2.88Zm6.18-96.29h12.34L374.7,250h3.21v-2.88h-4.4L355,265.63H342.66L327.6,280.69l2,2Zm-.24,13.1h19.83l15-15h12.72v-2.88H377.25l-15,15H342.43l-12,12,2,2Zm58.29,29.12-8.56-8.56H370.63l-3.89,3.89H323.23v2.88h44.7l3.89-3.89h20.34l7.71,7.72Zm-26-19.82H398.6V288H374.69l-7.18,7.18H332.82v2.88H368.7Zm-7.65,36.84h-11l-12-12H329.72v2.88H344l12,12h12.23Zm-113.14,7.86h12.34l15.06-15.06-2-2-14.22,14.22H253.9l-18.51,18.51h-3.21v2.88h4.4Zm-5.34-16h19.83l12-12-2-2-11.11,11.11H248.56l-15,15H220.85v2.88h13.91Zm-4.48-18.7h43.51v-2.88h-44.7l-3.89,3.89H219.84l-7.15-7.15-2,2,8,8h22.72Zm34.28-13.72H267.81l-11.07-11.07h-25V279h23.85l11.07,11.07h12.93ZM288,276.89H283.4l-12-12H249.54v2.88h20.63l12,12H288Zm9.5-50.39-2.62-2.62-2,2,1.77,1.77V277.6h2.88Zm9.54,7.59L311,230.2V207.47l-3.09-3.09-2,2,2.25,2.25V229l-3.89,3.89v44.7h2.88Zm10.85,8.82,7.18-7.18V205.4l-2.25-2.25-2,2,1.41,1.41v27.95l-7.18,7.18V277.6h2.88Zm8.59,24,11.07-11.07V225.62L348.17,215l-2-2-11.42,11.42v30.27l-11.07,11.07v12.93h2.88Zm-38.15-22.9-10.79-10.8V217.14H274.7v17.31l10.79,10.8v33.45h2.88Z"/><circle class="cls-6" cx="319.2" cy="374.13" r="5.41" transform="translate(-171.06 335.29) rotate(-45)"/><path class="cls-5" d="M314.87,378.46a6.13,6.13,0,1,1,8.67,0,6.14,6.14,0,0,1-8.67,0Zm7.65-7.65a4.69,4.69,0,1,0,0,6.63,4.69,4.69,0,0,0,0-6.63Z"/><circle class="cls-6" cx="301.82" cy="394.86" r="5.41" transform="translate(-190.81 329.06) rotate(-45)"/><path class="cls-5" d="M297.48,399.2a6.13,6.13,0,1,1,8.67,0,6.14,6.14,0,0,1-8.67,0Zm7.65-7.65a4.69,4.69,0,1,0,0,6.63,4.69,4.69,0,0,0,0-6.63Z"/><circle class="cls-6" cx="287.07" cy="377.76" r="5.41" transform="translate(-183.04 313.63) rotate(-45)"/><path class="cls-5" d="M282.74,373.43a6.13,6.13,0,1,1,0,8.67,6.14,6.14,0,0,1,0-8.67Zm7.65,7.65a4.69,4.69,0,1,0-6.63,0,4.69,4.69,0,0,0,6.63,0Z"/><circle class="cls-6" cx="279.9" cy="358.76" r="5.41"/><path class="cls-5" d="M273.77,358.76a6.13,6.13,0,1,1,6.13,6.13,6.14,6.14,0,0,1-6.13-6.13Zm10.82,0a4.69,4.69,0,1,0-4.69,4.69,4.69,4.69,0,0,0,4.69-4.69Z"/><circle class="cls-6" cx="336.23" cy="379.35" r="5.41"/><path class="cls-5" d="M330.1,379.35a6.13,6.13,0,1,1,6.13,6.13,6.14,6.14,0,0,1-6.13-6.13Zm10.82,0a4.69,4.69,0,1,0-4.69,4.69,4.69,4.69,0,0,0,4.69-4.69Z"/><circle class="cls-6" cx="377.6" cy="248.56" r="5.41"/><path class="cls-5" d="M377.6,254.69a6.13,6.13,0,1,1,6.13-6.13,6.14,6.14,0,0,1-6.13,6.13Zm0-10.82a4.69,4.69,0,1,0,4.69,4.69,4.69,4.69,0,0,0-4.69-4.69Z"/><circle class="cls-6" cx="390.86" cy="265.18" r="5.41"/><path class="cls-5" d="M390.86,271.31a6.13,6.13,0,1,1,6.13-6.13,6.14,6.14,0,0,1-6.13,6.13Zm0-10.82a4.69,4.69,0,1,0,4.69,4.69,4.69,4.69,0,0,0-4.69-4.69Z"/><circle class="cls-6" cx="400.68" cy="311.53" r="5.41" transform="translate(-102.93 374.57) rotate(-45)"/><path class="cls-5" d="M396.34,315.87a6.13,6.13,0,1,1,8.67,0,6.14,6.14,0,0,1-8.67,0Zm7.65-7.65a4.69,4.69,0,1,0,0,6.63,4.69,4.69,0,0,0,0-6.63Z"/><circle class="cls-6" cx="398.3" cy="289.48" r="5.41"/><path class="cls-5" d="M398.3,295.61a6.13,6.13,0,1,1,6.13-6.13,6.14,6.14,0,0,1-6.13,6.13Zm0-10.82a4.69,4.69,0,1,0,4.69,4.69,4.69,4.69,0,0,0-4.69-4.69Z"/><circle class="cls-6" cx="367.92" cy="329.2" r="5.41"/><path class="cls-5" d="M367.92,335.33A6.13,6.13,0,1,1,374,329.2a6.14,6.14,0,0,1-6.13,6.13Zm0-10.82a4.69,4.69,0,1,0,4.69,4.69,4.69,4.69,0,0,0-4.69-4.69Z"/><circle class="cls-6" cx="232.49" cy="352.68" r="5.41"/><path class="cls-5" d="M232.49,346.55a6.13,6.13,0,1,1-6.13,6.13,6.14,6.14,0,0,1,6.13-6.13Zm0,10.82a4.69,4.69,0,1,0-4.69-4.69,4.69,4.69,0,0,0,4.69,4.69Z"/><circle class="cls-6" cx="221.15" cy="333.18" r="5.41"/><path class="cls-5" d="M221.15,327.05a6.13,6.13,0,1,1-6.13,6.13,6.14,6.14,0,0,1,6.13-6.13Zm0,10.82a4.69,4.69,0,1,0-4.69-4.69,4.69,4.69,0,0,0,4.69,4.69Z"/><circle class="cls-6" cx="211.9" cy="296.03" r="5.41" transform="translate(-147.26 236.54) rotate(-45)"/><path class="cls-5" d="M216.23,291.7a6.13,6.13,0,1,1-8.67,0,6.14,6.14,0,0,1,8.67,0Zm-7.65,7.65a4.69,4.69,0,1,0,0-6.63,4.69,4.69,0,0,0,0,6.63Z"/><circle class="cls-6" cx="232.01" cy="277.58" r="5.41"/><path class="cls-5" d="M232,271.45a6.13,6.13,0,1,1-6.13,6.13,6.14,6.14,0,0,1,6.13-6.13Zm0,10.82a4.69,4.69,0,1,0-4.69-4.69,4.69,4.69,0,0,0,4.69,4.69Z"/><circle class="cls-6" cx="249.84" cy="266.29" r="5.41"/><path class="cls-5" d="M249.84,260.16a6.13,6.13,0,1,1-6.13,6.13,6.14,6.14,0,0,1,6.13-6.13Zm0,10.82a4.69,4.69,0,1,0-4.69-4.69,4.69,4.69,0,0,0,4.69,4.69Z"/><circle class="cls-6" cx="294.13" cy="225.12" r="5.41" transform="translate(-73.03 273.92) rotate(-45)"/><path class="cls-5" d="M298.46,220.78a6.13,6.13,0,1,1-8.67,0,6.14,6.14,0,0,1,8.67,0Zm-7.65,7.65a4.69,4.69,0,1,0,0-6.63,4.69,4.69,0,0,0,0,6.63Z"/><circle class="cls-6" cx="307.09" cy="205.62" r="5.41" transform="translate(-55.45 277.37) rotate(-45)"/><path class="cls-5" d="M311.42,201.28a6.13,6.13,0,1,1-8.67,0,6.14,6.14,0,0,1,8.67,0Zm-7.65,7.65a4.69,4.69,0,1,0,0-6.63,4.69,4.69,0,0,0,0,6.63Z"/><circle class="cls-6" cx="322.07" cy="204.38" r="5.41" transform="translate(-50.19 287.59) rotate(-45)"/><path class="cls-5" d="M326.4,200.05a6.13,6.13,0,1,1-8.67,0,6.14,6.14,0,0,1,8.67,0Zm-7.65,7.65a4.69,4.69,0,1,0,0-6.63,4.69,4.69,0,0,0,0,6.63Z"/><circle class="cls-6" cx="346.93" cy="214.24" r="5.41" transform="translate(-49.88 308.07) rotate(-45)"/><path class="cls-5" d="M351.27,218.58a6.13,6.13,0,1,1,0-8.67,6.14,6.14,0,0,1,0,8.67Zm-7.65-7.65a4.69,4.69,0,1,0,6.63,0,4.69,4.69,0,0,0-6.63,0Z"/><circle class="cls-6" cx="276.14" cy="217.44" r="5.41"/><path class="cls-5" d="M282.27,217.44a6.13,6.13,0,1,1-6.13-6.13,6.14,6.14,0,0,1,6.13,6.13Zm-10.82,0a4.69,4.69,0,1,0,4.69-4.69,4.69,4.69,0,0,0-4.69,4.69Z"/><rect class="cls-6" x="281.33" y="270.26" width="52.78" height="52.78"/><path class="cls-5" d="M336,325H279.41V268.35H336Zm-52.78-3.84h48.94V272.18H283.25Z"/></svg>