<svg id="Layer_1" data-name="Layer 1" xmlns="http://www.w3.org/2000/svg" xmlns:xlink="http://www.w3.org/1999/xlink" viewBox="0 0 615 615"><defs><style>.cls-1{opacity:0.3;}.cls-2,.cls-6{fill:#2cbcee;}.cls-3{fill:url(#linear-gradient);}.cls-10,.cls-11,.cls-4,.cls-7{fill:none;stroke:#2cbcee;stroke-miterlimit:10;}.cls-4{stroke-linecap:round;}.cls-5{opacity:0.4;}.cls-6{opacity:0.2;}.cls-7{stroke-width:0.5px;}.cls-11,.cls-7,.cls-9{opacity:0.3;}.cls-8{fill:url(#linear-gradient-2);}.cls-10,.cls-11{stroke-width:8px;}.cls-12{fill:#fff;}.cls-13{fill:url(#linear-gradient-3);}</style><linearGradient id="linear-gradient" x1="159.64" y1="430.06" x2="454.95" y2="430.06" gradientUnits="userSpaceOnUse"><stop offset="0" stop-color="#37c6f4"/><stop offset="0.08" stop-color="#3bc5e8"/><stop offset="0.72" stop-color="#5ac088"/><stop offset="1" stop-color="#66be62"/></linearGradient><linearGradient id="linear-gradient-2" x1="198.8" y1="317.42" x2="415.29" y2="317.42" gradientUnits="userSpaceOnUse"><stop offset="0" stop-color="#37c6f4"/><stop offset="0.34" stop-color="#46c3c6"/><stop offset="1" stop-color="#66be62"/></linearGradient><linearGradient id="linear-gradient-3" x1="96.87" y1="320.67" x2="513.83" y2="320.67" xlink:href="#linear-gradient-2"/></defs><title>icons-FINAL</title><g class="cls-1"><path class="cls-2" d="M283.8,376.26l-64.58-46a.91.91,0,0,0-1.3.26,1,1,0,0,0,.25,1.36l62.31,44.43Z"/><path class="cls-2" d="M394.27,330.8a.94.94,0,0,0-1.32-.17l-58.89,45.62h3.06l57-44.14A.94.94,0,0,0,394.27,330.8Z"/></g><g class="cls-1"><polygon class="cls-2" points="232.8 444.98 281.06 415.06 277.49 415.06 229.25 444.98 232.8 444.98"/><path class="cls-2" d="M189.95,445,150.68,374.9a.94.94,0,0,0-1.64.92L187.8,445Z"/><polygon class="cls-2" points="386.28 445.06 341.32 415.06 337.94 415.06 382.9 445.06 386.28 445.06"/><path class="cls-2" d="M461.29,374.54a.94.94,0,0,0-1.27.37l-38.42,70.15h2.14l37.93-69.25A.94.94,0,0,0,461.29,374.54Z"/></g><g class="cls-1"><path class="cls-2" d="M171.24,483.78,133,511.39a.94.94,0,0,0,1.1,1.52l40.38-29.12Z"/><polygon class="cls-2" points="375.5 483.86 307.23 523.16 236.52 483.79 232.66 483.79 307.24 525.32 379.26 483.86 375.5 483.86"/><path class="cls-2" d="M481.49,508.71l-37.14-24.84H441l39.47,26.4a.94.94,0,0,0,1-1.56Z"/></g><path class="cls-3" d="M241.73,481.44H159.64V447.33h82.09ZM353.48,378.6H271.39v34.11h82.09Zm101.47,68.81H372.86v34.11h82.09Z"/><circle class="cls-4" cx="202.75" cy="214.26" r="26.9"/><circle class="cls-4" cx="202.75" cy="214.26" r="39.04"/><g class="cls-5"><rect class="cls-6" x="367.6" y="147.98" width="114.51" height="8.95"/><rect class="cls-2" x="367.6" y="147.98" width="52.42" height="8.95"/><rect class="cls-6" x="367.6" y="160.29" width="114.51" height="8.95"/><rect class="cls-2" x="367.6" y="160.29" width="87.88" height="8.95"/><rect class="cls-6" x="367.6" y="172.35" width="114.51" height="8.95"/><rect class="cls-2" x="367.6" y="172.35" width="100.4" height="8.95"/><rect class="cls-6" x="367.6" y="184.4" width="114.51" height="8.95"/><rect class="cls-2" x="367.6" y="184.4" width="43.94" height="8.95"/></g><polyline class="cls-7" points="192.69 210.46 148.39 210.46 136.11 222.74"/><polyline class="cls-7" points="413.9 245.38 458.2 245.38 470.48 257.65"/><circle class="cls-4" cx="311.29" cy="128.33" r="32.22"/><circle class="cls-4" cx="311.29" cy="128.33" r="46.76"/><polyline class="cls-7" points="318.8 128.33 369.62 128.33 383.71 142.42"/><path class="cls-8" d="M200.68,441.35a1.89,1.89,0,0,1-1.32-.54,1.87,1.87,0,0,1-.55-1.33,1.9,1.9,0,0,1,.55-1.32,1.92,1.92,0,0,1,1.7-.52,2.55,2.55,0,0,1,.35.11,1.73,1.73,0,0,1,.32.17,2.43,2.43,0,0,1,.29.23,1.9,1.9,0,0,1,.55,1.32,1.87,1.87,0,0,1-.55,1.33A1.9,1.9,0,0,1,200.68,441.35Zm0-9.32h0a1.87,1.87,0,0,0,1.88-1.87h0a1.88,1.88,0,0,0-1.88-1.89h0a1.88,1.88,0,1,0,0,3.75Zm0-9.32h0a1.88,1.88,0,0,0,1.88-1.88h0a1.88,1.88,0,0,0-1.88-1.88h0a1.88,1.88,0,0,0,0,3.75Zm0-9.32h0a1.88,1.88,0,0,0,1.88-1.88h0a1.88,1.88,0,0,0-1.88-1.88h0a1.88,1.88,0,0,0,0,3.75Zm0-9.32h0a1.88,1.88,0,0,0,1.88-1.88h0a1.88,1.88,0,0,0-1.88-1.88h0a1.88,1.88,0,0,0,0,3.75Zm0-9.32h0a1.88,1.88,0,0,0,1.88-1.88h0a1.88,1.88,0,0,0-1.88-1.88h0a1.88,1.88,0,0,0,0,3.75Zm0-9.32h0a1.88,1.88,0,0,0,1.88-1.88h0a1.88,1.88,0,0,0-1.88-1.88h0a1.88,1.88,0,0,0,0,3.75Zm0-9.32h0a1.88,1.88,0,0,0,1.88-1.88h0a1.88,1.88,0,0,0-1.88-1.88h0a1.88,1.88,0,0,0,0,3.75Zm0-9.32h0a1.88,1.88,0,0,0,1.88-1.88h0a1.88,1.88,0,0,0-1.88-1.88h0a1.88,1.88,0,0,0,0,3.75Zm0-9.32h0a1.88,1.88,0,0,0,1.88-1.88h0a1.88,1.88,0,0,0-1.88-1.88h0a1.88,1.88,0,0,0,0,3.75Zm0-9.32h0a1.88,1.88,0,0,0,1.88-1.88h0a1.88,1.88,0,0,0-1.88-1.88h0a1.88,1.88,0,0,0,0,3.75Zm0-9.32h0a1.88,1.88,0,0,0,1.88-1.88h0a1.88,1.88,0,0,0-1.88-1.89h0a1.88,1.88,0,0,0,0,3.76Zm0-9.33h0a1.88,1.88,0,0,0,1.88-1.88h0a1.88,1.88,0,0,0-1.88-1.88h0a1.88,1.88,0,0,0,0,3.75Zm0-9.32h0a1.88,1.88,0,0,0,1.88-1.88h0a1.88,1.88,0,0,0-1.88-1.88h0a1.88,1.88,0,0,0,0,3.75Zm0-9.32h0a1.88,1.88,0,0,0,1.88-1.88h0a1.88,1.88,0,0,0-1.88-1.88h0a1.88,1.88,0,0,0,0,3.75Zm0-9.32h0a1.88,1.88,0,0,0,1.88-1.88h0a1.88,1.88,0,0,0-1.88-1.88h0a1.88,1.88,0,1,0,0,3.75Zm0-9.32h0a1.88,1.88,0,0,0,1.88-1.88h0a1.88,1.88,0,0,0-1.88-1.88h0a1.88,1.88,0,0,0,0,3.75Zm0-9.32h0a1.88,1.88,0,0,0,1.88-1.88h0a1.88,1.88,0,0,0-1.88-1.88h0a1.88,1.88,0,0,0,0,3.75Zm0-9.32h0a1.88,1.88,0,0,0,1.88-1.88h0a1.88,1.88,0,0,0-1.88-1.88h0a1.88,1.88,0,0,0,0,3.75Zm1.32-9.88a2.25,2.25,0,0,0,.23-.28,2.28,2.28,0,0,0,.28-.68,2.47,2.47,0,0,0,0-.37A1.91,1.91,0,0,0,202,261a2.43,2.43,0,0,0-.29-.23,1.73,1.73,0,0,0-.32-.17,1.67,1.67,0,0,0-.35-.1,1.88,1.88,0,0,0-1.7.51,1.91,1.91,0,0,0-.55,1.33,2.36,2.36,0,0,0,0,.37,2.1,2.1,0,0,0,.11.35,1.55,1.55,0,0,0,.17.33,2.17,2.17,0,0,0,.23.28,1.87,1.87,0,0,0,2.65,0ZM311.86,371.21l.35-.1a1.75,1.75,0,0,0,.32-.18,1.78,1.78,0,0,0,.29-.23,1.9,1.9,0,0,0,.41-.61,1.85,1.85,0,0,0,.14-.71,1.9,1.9,0,0,0-.55-1.33,2.38,2.38,0,0,0-.28-.23,2.23,2.23,0,0,0-.33-.17,1.47,1.47,0,0,0-.35-.1,1.88,1.88,0,0,0-1.7,3.16,1.87,1.87,0,0,0,1.33.55A2.47,2.47,0,0,0,311.86,371.21Zm-.37-9.32h0a1.88,1.88,0,0,0,1.88-1.88h0a1.88,1.88,0,0,0-1.88-1.88h0a1.88,1.88,0,1,0,0,3.75Zm0-9.37h0a1.88,1.88,0,0,0,1.88-1.88h0a1.88,1.88,0,0,0-1.88-1.88h0a1.88,1.88,0,1,0,0,3.75Zm0-9.36h0a1.88,1.88,0,0,0,1.88-1.88h0a1.88,1.88,0,0,0-1.88-1.88h0a1.88,1.88,0,1,0,0,3.75Zm0-9.36h0a1.88,1.88,0,0,0,1.88-1.88h0A1.88,1.88,0,0,0,311.5,330h0a1.88,1.88,0,1,0,0,3.75Zm0-9.36h0a1.88,1.88,0,0,0,1.88-1.88h0a1.88,1.88,0,0,0-1.88-1.88h0a1.88,1.88,0,1,0,0,3.75Zm0-9.36h0a1.88,1.88,0,0,0,1.88-1.88h0a1.88,1.88,0,0,0-1.88-1.88h0a1.88,1.88,0,1,0,0,3.75Zm0-9.37h0a1.88,1.88,0,0,0,1.88-1.88h0A1.87,1.87,0,0,0,311.5,302h0a1.87,1.87,0,1,0,0,3.74Zm0-9.36h0a1.88,1.88,0,0,0,1.88-1.88h0a1.88,1.88,0,0,0-1.88-1.88h0a1.88,1.88,0,1,0,0,3.75Zm0-9.36h0a1.88,1.88,0,0,0,1.88-1.88h0a1.88,1.88,0,0,0-1.88-1.88h0a1.88,1.88,0,1,0,0,3.75Zm0-9.36h0a1.88,1.88,0,0,0,1.88-1.88h0a1.88,1.88,0,0,0-1.88-1.88h0a1.88,1.88,0,1,0,0,3.75Zm0-9.36h0a1.88,1.88,0,0,0,1.88-1.88h0a1.88,1.88,0,0,0-1.88-1.88h0a1.88,1.88,0,1,0,0,3.75Zm0-9.36h0a1.88,1.88,0,0,0,1.88-1.88h0a1.88,1.88,0,0,0-1.88-1.88h0a1.88,1.88,0,1,0,0,3.75Zm0-9.36h0a1.88,1.88,0,0,0,1.88-1.88h0a1.88,1.88,0,0,0-1.88-1.88h0a1.88,1.88,0,1,0,0,3.75Zm0-9.37h0a1.88,1.88,0,0,0,1.88-1.88h0a1.88,1.88,0,0,0-1.88-1.88h0a1.88,1.88,0,1,0,0,3.75Zm0-9.36h0a1.88,1.88,0,0,0,1.88-1.88h0A1.88,1.88,0,0,0,311.5,227h0a1.88,1.88,0,1,0,0,3.75Zm0-9.36h0a1.88,1.88,0,0,0,1.88-1.88h0a1.88,1.88,0,0,0-1.88-1.88h0a1.88,1.88,0,1,0,0,3.75Zm0-9.36h0a1.88,1.88,0,0,0,1.88-1.88h0a1.88,1.88,0,0,0-1.88-1.88h0a1.88,1.88,0,1,0,0,3.75Zm0-9.36h0a1.88,1.88,0,0,0,1.88-1.88h0A1.88,1.88,0,0,0,311.5,199h0a1.88,1.88,0,1,0,0,3.75Zm.37-9.4a2.17,2.17,0,0,0,.35-.1,1.76,1.76,0,0,0,.32-.18,1.4,1.4,0,0,0,.29-.23,1.81,1.81,0,0,0,.41-.61,3,3,0,0,0,.1-.35,1.8,1.8,0,0,0,0-.73,2.31,2.31,0,0,0-.11-.36,2,2,0,0,0-.17-.32,1.78,1.78,0,0,0-.23-.29,1.69,1.69,0,0,0-.28-.23,1.59,1.59,0,0,0-.33-.18,1.52,1.52,0,0,0-.35-.1,1.76,1.76,0,0,0-.73,0,1.58,1.58,0,0,0-.36.1,1.53,1.53,0,0,0-.32.18,2.25,2.25,0,0,0-.29.23,1.73,1.73,0,0,0-.23.29,1.63,1.63,0,0,0-.28.68,1.6,1.6,0,0,0,0,.37,1.87,1.87,0,0,0,1.88,1.88A2.36,2.36,0,0,0,311.86,193.31Zm101.92,251.9a2.17,2.17,0,0,0,.35-.1,1.61,1.61,0,0,0,.33-.18,1.34,1.34,0,0,0,.28-.23,1.31,1.31,0,0,0,.23-.28,1.6,1.6,0,0,0,.18-.33,2.14,2.14,0,0,0,.1-.35,1.8,1.8,0,0,0,0-.73,2.28,2.28,0,0,0-.1-.36,2.11,2.11,0,0,0-.18-.32,2.17,2.17,0,0,0-.23-.29,1.65,1.65,0,0,0-.28-.23,1.56,1.56,0,0,0-.33-.18,1.52,1.52,0,0,0-.35-.1,1.92,1.92,0,0,0-1.7.51,2.09,2.09,0,0,0-.23.29,1.61,1.61,0,0,0-.28.68,1.8,1.8,0,0,0,0,.73,1.46,1.46,0,0,0,.1.35,2.15,2.15,0,0,0,.17.33,2.22,2.22,0,0,0,.23.28,1.89,1.89,0,0,0,.61.41,1.91,1.91,0,0,0,.72.14A1.6,1.6,0,0,0,413.78,445.21Zm-.37-9.54h0a1.88,1.88,0,0,0,1.88-1.88h0a1.88,1.88,0,0,0-1.88-1.88h0a1.88,1.88,0,0,0,0,3.75Zm0-9.58h0a1.88,1.88,0,0,0,1.88-1.88h0a1.88,1.88,0,0,0-1.88-1.88h0a1.88,1.88,0,1,0,0,3.75Zm0-9.57h0a1.88,1.88,0,0,0,1.88-1.88h0a1.88,1.88,0,0,0-1.88-1.88h0a1.88,1.88,0,1,0,0,3.75Zm0-9.58h0a1.88,1.88,0,0,0,1.88-1.88h0a1.88,1.88,0,0,0-1.88-1.88h0a1.88,1.88,0,0,0,0,3.75Zm0-9.58h0a1.88,1.88,0,0,0,1.88-1.88h0a1.88,1.88,0,0,0-1.88-1.88h0a1.88,1.88,0,0,0,0,3.75Zm0-9.58h0a1.88,1.88,0,0,0,1.88-1.88h0a1.88,1.88,0,0,0-1.88-1.88h0a1.88,1.88,0,0,0,0,3.75Zm0-9.58h0a1.88,1.88,0,0,0,1.88-1.88h0a1.88,1.88,0,0,0-1.88-1.88h0a1.88,1.88,0,1,0,0,3.75Zm0-9.57h0a1.88,1.88,0,0,0,1.88-1.88h0a1.88,1.88,0,0,0-1.88-1.88h0a1.88,1.88,0,1,0,0,3.75Zm0-9.58h0a1.88,1.88,0,0,0,1.88-1.88h0a1.88,1.88,0,0,0-1.88-1.88h0a1.88,1.88,0,0,0,0,3.75Zm0-9.58h0a1.88,1.88,0,0,0,1.88-1.88h0a1.88,1.88,0,0,0-1.88-1.88h0a1.88,1.88,0,0,0,0,3.75Zm0-9.58h0a1.88,1.88,0,0,0,1.88-1.88h0a1.88,1.88,0,0,0-1.88-1.88h0a1.88,1.88,0,0,0,0,3.75Zm0-9.58h0a1.88,1.88,0,0,0,1.88-1.88h0a1.88,1.88,0,0,0-1.88-1.88h0a1.88,1.88,0,1,0,0,3.75Zm0-9.57h0a1.88,1.88,0,0,0,1.88-1.88h0a1.88,1.88,0,0,0-1.88-1.89h0a1.88,1.88,0,0,0,0,3.76Zm0-9.58h0a1.88,1.88,0,0,0,1.88-1.88h0a1.88,1.88,0,0,0-1.88-1.88h0a1.88,1.88,0,1,0,0,3.75Zm0-9.58h0a1.88,1.88,0,0,0,1.88-1.88h0a1.88,1.88,0,0,0-1.88-1.88h0a1.88,1.88,0,0,0,0,3.75Zm.37-9.61a1.47,1.47,0,0,0,.35-.1,2.18,2.18,0,0,0,.33-.17,2.31,2.31,0,0,0,.28-.23,1.86,1.86,0,0,0,.55-1.33,1.88,1.88,0,0,0-2.24-1.84,2.28,2.28,0,0,0-.36.1,2.17,2.17,0,0,0-.32.18,2.26,2.26,0,0,0-.29.23,1.87,1.87,0,0,0-.54,1.32,1.9,1.9,0,0,0,.54,1.33,2,2,0,0,0,.61.4,1.91,1.91,0,0,0,.72.14A1.6,1.6,0,0,0,413.78,292Z"/><circle class="cls-4" cx="413.37" cy="246.36" r="25.62"/><circle class="cls-4" cx="413.37" cy="246.36" r="37.18"/><g class="cls-5"><rect class="cls-2" x="86.7" y="258.24" width="24.26" height="9.58" transform="translate(-164.2 361.86) rotate(-90)"/><rect class="cls-2" x="92.87" y="250.03" width="40.67" height="9.58" transform="translate(-141.61 368.03) rotate(-90)"/><rect class="cls-2" x="105.28" y="247.14" width="46.47" height="9.58" transform="translate(-123.41 380.44) rotate(-90)"/><rect class="cls-2" x="133.66" y="260.2" width="20.34" height="9.58" transform="translate(-121.16 408.82) rotate(-90)"/><rect class="cls-2" x="143.81" y="255.93" width="28.87" height="9.58" transform="translate(-102.48 418.97) rotate(-90)"/></g><g class="cls-9"><path class="cls-10" d="M509.11,305.09a26.24,26.24,0,0,1-32.94-40.49"/><path class="cls-11" d="M517.78,270.62a26.25,26.25,0,0,1-6.11,32.55"/><path class="cls-11" d="M497.53,257.06a26.22,26.22,0,0,1,18.79,11.18"/><path class="cls-10" d="M476.17,264.59a26.15,26.15,0,0,1,18.55-7.68"/></g><path class="cls-12" d="M167.75,476.75a.47.47,0,0,1-.47-.47V452.64a.47.47,0,0,1,.94,0v23.64A.47.47,0,0,1,167.75,476.75Z"/><path class="cls-12" d="M177.06,476.75a.47.47,0,0,1-.47-.47V452.64a.47.47,0,0,1,.94,0v23.64A.47.47,0,0,1,177.06,476.75Z"/><path class="cls-12" d="M186.36,476.75a.47.47,0,0,1-.47-.47V452.64a.47.47,0,0,1,.94,0v23.64A.47.47,0,0,1,186.36,476.75Z"/><path class="cls-12" d="M195.66,476.75a.47.47,0,0,1-.47-.47V452.64a.47.47,0,0,1,.94,0v23.64A.47.47,0,0,1,195.66,476.75Z"/><path class="cls-12" d="M205,476.75a.47.47,0,0,1-.47-.47V452.64a.47.47,0,0,1,.94,0v23.64A.47.47,0,0,1,205,476.75Z"/><path class="cls-12" d="M214.27,476.75a.47.47,0,0,1-.47-.47V452.64a.47.47,0,0,1,.94,0v23.64A.47.47,0,0,1,214.27,476.75Z"/><path class="cls-12" d="M223.57,476.75a.47.47,0,0,1-.47-.47V452.64a.47.47,0,0,1,.94,0v23.64A.47.47,0,0,1,223.57,476.75Z"/><path class="cls-12" d="M232.88,476.75a.47.47,0,0,1-.47-.47V452.64a.47.47,0,0,1,.94,0v23.64A.47.47,0,0,1,232.88,476.75Z"/><path class="cls-12" d="M279.5,408a.47.47,0,0,1-.47-.47V383.92a.47.47,0,0,1,.94,0v23.64A.47.47,0,0,1,279.5,408Z"/><path class="cls-12" d="M288.81,408a.47.47,0,0,1-.47-.47V383.92a.47.47,0,1,1,.94,0v23.64A.47.47,0,0,1,288.81,408Z"/><path class="cls-12" d="M298.11,408a.47.47,0,0,1-.47-.47V383.92a.47.47,0,1,1,.94,0v23.64A.47.47,0,0,1,298.11,408Z"/><path class="cls-12" d="M307.41,408a.47.47,0,0,1-.47-.47V383.92a.47.47,0,1,1,.94,0v23.64A.47.47,0,0,1,307.41,408Z"/><path class="cls-12" d="M316.72,408a.47.47,0,0,1-.47-.47V383.92a.47.47,0,0,1,.94,0v23.64A.47.47,0,0,1,316.72,408Z"/><path class="cls-12" d="M326,408a.47.47,0,0,1-.47-.47V383.92a.47.47,0,1,1,.94,0v23.64A.47.47,0,0,1,326,408Z"/><path class="cls-12" d="M335.32,408a.47.47,0,0,1-.47-.47V383.92a.47.47,0,0,1,.94,0v23.64A.47.47,0,0,1,335.32,408Z"/><path class="cls-12" d="M344.63,408a.47.47,0,0,1-.47-.47V383.92a.47.47,0,1,1,.94,0v23.64A.47.47,0,0,1,344.63,408Z"/><path class="cls-12" d="M381,476.83a.47.47,0,0,1-.47-.47V452.72a.47.47,0,0,1,.94,0v23.64A.47.47,0,0,1,381,476.83Z"/><path class="cls-12" d="M390.28,476.83a.47.47,0,0,1-.47-.47V452.72a.47.47,0,0,1,.94,0v23.64A.47.47,0,0,1,390.28,476.83Z"/><path class="cls-12" d="M399.58,476.83a.47.47,0,0,1-.47-.47V452.72a.47.47,0,0,1,.94,0v23.64A.47.47,0,0,1,399.58,476.83Z"/><path class="cls-12" d="M408.88,476.83a.47.47,0,0,1-.47-.47V452.72a.47.47,0,1,1,.94,0v23.64A.47.47,0,0,1,408.88,476.83Z"/><path class="cls-12" d="M418.19,476.83a.47.47,0,0,1-.47-.47V452.72a.47.47,0,0,1,.94,0v23.64A.47.47,0,0,1,418.19,476.83Z"/><path class="cls-12" d="M427.49,476.83a.47.47,0,0,1-.47-.47V452.72a.47.47,0,0,1,.94,0v23.64A.47.47,0,0,1,427.49,476.83Z"/><path class="cls-12" d="M436.79,476.83a.47.47,0,0,1-.47-.47V452.72a.47.47,0,0,1,.94,0v23.64A.47.47,0,0,1,436.79,476.83Z"/><path class="cls-12" d="M446.1,476.83a.47.47,0,0,1-.47-.47V452.72a.47.47,0,0,1,.94,0v23.64A.47.47,0,0,1,446.1,476.83Z"/><path class="cls-13" d="M436.67,527.52H174a77.16,77.16,0,0,1-28.19-149,48.77,48.77,0,0,1,70-55.49,98,98,0,0,1,179.33-.11,48.77,48.77,0,0,1,69.74,55.61,77.16,77.16,0,0,1-28.19,149ZM193,324a42.21,42.21,0,0,0-40,55.55l1,3.08-3.07,1.06A70.59,70.59,0,0,0,174,521H436.67a70.59,70.59,0,0,0,23.09-137.3l-3.07-1.06,1-3.08a42.21,42.21,0,0,0-62.45-49.11l-3.35,2.1-1.45-3.67a91.4,91.4,0,0,0-170,.13l-1.46,3.7-3.36-2.13A42.07,42.07,0,0,0,193,324Zm9.73-121.82a12.11,12.11,0,1,0,12.11,12.11A12.11,12.11,0,0,0,202.75,202.15Zm108.54-88.32a14.51,14.51,0,1,0,14.51,14.51A14.51,14.51,0,0,0,311.29,113.83Zm102.08,121a11.54,11.54,0,1,0,11.54,11.54A11.54,11.54,0,0,0,413.37,234.82Z"/></svg>