<svg id="Layer_1" data-name="Layer 1" xmlns="http://www.w3.org/2000/svg" xmlns:xlink="http://www.w3.org/1999/xlink" viewBox="0 0 615 615"><defs><style>.cls-1,.cls-2,.cls-5,.cls-7{fill:none;stroke:#2cbcee;stroke-linecap:round;stroke-miterlimit:10;}.cls-1,.cls-4{opacity:0.3;}.cls-2,.cls-5{stroke-width:4px;}.cls-2{stroke-dasharray:0 10;}.cls-3,.cls-6{fill:#2cbcee;}.cls-3{opacity:0.3;}.cls-5{stroke-dasharray:0 9.8;}.cls-8{fill:url(#linear-gradient);}</style><linearGradient id="linear-gradient" x1="105.33" y1="308.3" x2="555.37" y2="308.3" gradientUnits="userSpaceOnUse"><stop offset="0" stop-color="#37c6f4"/><stop offset="0.34" stop-color="#46c3c6"/><stop offset="1" stop-color="#66be62"/></linearGradient></defs><title>icons-FINAL</title><path class="cls-1" d="M209,437.18A154.68,154.68,0,0,1,153.8,254.66"/><path class="cls-1" d="M446.74,351.94a154.57,154.57,0,0,1-229.58,90.58"/><path class="cls-1" d="M301.67,156.27a154.54,154.54,0,0,1,137.26,91.48"/><path class="cls-1" d="M212.66,181.79a153.69,153.69,0,0,1,80.17-25.48"/><path class="cls-2" d="M141.09,158.92A217.72,217.72,0,0,1,260,95.8"/><path class="cls-2" d="M110.85,423.26A218.45,218.45,0,0,1,107,204.89"/><path class="cls-2" d="M269.5,527.08a217.46,217.46,0,0,1-121.72-57.94"/><path class="cls-2" d="M453.38,463.69a217.58,217.58,0,0,1-127.29,63.39"/><path class="cls-2" d="M512.1,351.94a216.73,216.73,0,0,1-24.66,66.76"/><path class="cls-2" d="M488.14,204a216.71,216.71,0,0,1,25,71.61"/><path class="cls-2" d="M330.35,94.95a217.6,217.6,0,0,1,122,61.71"/><circle class="cls-2" cx="298.16" cy="92.03" r="18.72"/><circle class="cls-3" cx="298.16" cy="92.03" r="12.01"/><g class="cls-4"><circle class="cls-5" cx="300.19" cy="283.35" r="18.72"/></g><g class="cls-4"><circle class="cls-5" cx="238.54" cy="283.35" r="18.72"/></g><g class="cls-4"><circle class="cls-5" cx="359.48" cy="352.14" r="18.72"/></g><g class="cls-4"><circle class="cls-5" cx="236.85" cy="352.14" r="18.72"/></g><circle class="cls-2" cx="127.72" cy="446.82" r="18.72"/><circle class="cls-3" cx="127.72" cy="446.82" r="12.01"/><g class="cls-4"><path class="cls-6" d="M240.11,274.81v7h6.72v3h-6.72v7.07H237v-7.07h-6.72v-3H237v-7Z"/></g><g class="cls-4"><path class="cls-6" d="M302.1,274.81v7h6.72v3H302.1v7.07h-3.15v-7.07h-6.72v-3h6.72v-7Z"/></g><g class="cls-4"><path class="cls-6" d="M238.43,343.59v7h6.72v3h-6.72v7.07h-3.15v-7.07h-6.72v-3h6.72v-7Z"/></g><g class="cls-4"><path class="cls-6" d="M361,343.59v7h6.72v3H361v7.07H357.9v-7.07h-6.72v-3h6.72v-7Z"/></g><g class="cls-4"><path class="cls-7" d="M156.35,451.41s53.51,14.13,77.54-38.81c19.62-43.22,38.64-55,43.1-57.21"/><polygon class="cls-6" points="276.07 360.63 275.12 360.32 276.68 355.64 271.9 354.43 272.15 353.46 277.97 354.93 276.07 360.63"/></g><g class="cls-4"><path class="cls-7" d="M297.84,116.89S289.41,242.79,335.75,275"/><polygon class="cls-6" points="330.69 276.31 330.56 275.31 335.46 274.72 334.51 269.88 335.49 269.69 336.65 275.58 330.69 276.31"/></g><path class="cls-8" d="M371,281.13a14.57,14.57,0,1,1-14.57-14.57A14.57,14.57,0,0,1,371,281.13Zm-73.77,56.24a14.57,14.57,0,1,0,14.57,14.57A14.57,14.57,0,0,0,297.24,337.37ZM142.76,179.47A18.72,18.72,0,1,0,124,198.18,18.72,18.72,0,0,0,142.76,179.47Zm310.09,0a18.72,18.72,0,1,1,18.72,18.72A18.72,18.72,0,0,1,452.85,179.47ZM316.53,528.9a18.72,18.72,0,1,1-18.72-18.72A18.72,18.72,0,0,1,316.53,528.9ZM534,302.39a36.28,36.28,0,0,0-36-31.89l-1.36,0a45.74,45.74,0,0,0-82.46-3.12V194.34H364.6a12.35,12.35,0,0,0-5.28-2.17v-92.1L389,70.35a1.92,1.92,0,1,0-2.72-2.72L355.47,98.47v93.7a12.35,12.35,0,0,0-5.28,2.17H224.47a33.94,33.94,0,0,0-64.28,7.81,27,27,0,0,0-25.46,18.47h-.6a17.78,17.78,0,0,0,0,35.56h1.61l45.69.26v66.21a33.66,33.66,0,0,0-22.1,18.89h-.57A27.07,27.07,0,0,0,132,364.84a19.72,19.72,0,0,0,4.08,39l45.34-.32V427.1H285.12c0,.05,0,.1,0,.15a12.41,12.41,0,0,0,10.48,12.23v36.36l-70.42,70.42a1.92,1.92,0,1,0,2.72,2.72l71.54-71.54v-38a12.41,12.41,0,0,0,10.47-12.23c0-.05,0-.1,0-.15H414.19V353.53l115,.81a26.2,26.2,0,0,0,4.78-52ZM181.43,398.73l-45.36.32a14.92,14.92,0,0,1-1.61-29.74l2-.21.13-2a22.25,22.25,0,0,1,22.16-20.75c.6,0,1.23,0,1.93.09l1.79.15.65-1.68a28.92,28.92,0,0,1,18.3-17.23ZM357.4,195a9,9,0,1,1-9,9A9,9,0,0,1,357.4,195ZM135.75,251.37h-1.62a13,13,0,1,1,2-25.78l2.17.33.53-2.13A22.16,22.16,0,0,1,160.36,207c.51,0,1.05,0,1.7.07l2.3.17.27-2.29a29.14,29.14,0,0,1,56.1-7.08l.65,1.68,1.79-.15c.7-.06,1.33-.09,1.93-.09A22.25,22.25,0,0,1,247.26,220l.13,2,2,.21a14.92,14.92,0,0,1-1.6,29.74ZM297.51,435.81a8.55,8.55,0,1,1,8.55-8.55A8.56,8.56,0,0,1,297.51,435.81Zm109-16.39H307.1a12.5,12.5,0,0,0-1.52-1.54l14.73-18.4L314.08,368a1.92,1.92,0,0,0-3.77.75l5.89,29.76-13.9,17.36a12.33,12.33,0,0,0-8.64-.34l-13.63-17,5.89-29.76a1.92,1.92,0,1,0-3.77-.75l-6.24,31.51,14.27,17.81a12.49,12.49,0,0,0-2.26,2.13h-98.8V256.47l58.68.33a19.72,19.72,0,0,0,4.07-39,26.93,26.93,0,0,0-8-15.75H345.23a12.35,12.35,0,0,0,5.16,12.59l-14.84,18.53,6.24,31.51a1.92,1.92,0,1,0,3.77-.75l-5.89-29.76L354,216.3a12.18,12.18,0,0,0,7.43-.18l14.44,18-5.89,29.76a1.92,1.92,0,1,0,3.77.75L380,233.14l-15.11-18.86A12.33,12.33,0,0,0,369.56,202H406.5v79.13a36.21,36.21,0,0,0,0,72.23Zm122.7-69.87-120.13-.85a31.41,31.41,0,0,1,0-62.82c.72,0,1.49,0,2.41.1l2.3.17.27-2.29a40.92,40.92,0,0,1,78.8-9.95l.65,1.68,1.79-.15c1-.08,1.88-.13,2.72-.13a31.46,31.46,0,0,1,31.33,29.35l.13,2,2,.21a21.39,21.39,0,0,1-2.29,42.65ZM490.64,442a18.72,18.72,0,1,1-18.72-18.72A18.72,18.72,0,0,1,490.64,442Z"/></svg>